<svg xmlns="http://www.w3.org/2000/svg" width="32" height="32" id="medical"><g transform="translate(199 -1028.503)"><path fill="#cdd7e0" d="M-192.5 1035.9h19v22h-19z"></path><path fill="#ff5855" stroke="#373449" stroke-linecap="round" stroke-linejoin="round" d="M-184 1040.9v2.5h-2.5v2h2.5v2.5h2v-2.5h2.5v-2h-2.5v-2.5z"></path><path fill="none" stroke="#f4f4f4" d="M-187.5 1050.9h9m-9 2h9m-9 2h9"></path><path fill="#f4f4f4" d="M-192.5 1035.893v22h1.5v-22h-1.5z"></path><path fill="#a1b4c5" d="M-175 1035.893v22h1.5v-22h-1.5z"></path><path fill="none" stroke="#373449" stroke-linecap="round" stroke-linejoin="round" d="M-192.5 1035.9h19v22h-19z"></path><path fill="#5bdadd" d="M-183.252 1031.118c-.298.03-.587.121-.865.263-.997.508-1.417 1.579-1.046 2.526h-3.34v3.993h11.006v-3.993h-3.34a1.953 1.953 0 0 0-.145-1.739c-.466-.759-1.377-1.14-2.27-1.05z"></path><path fill="#66f3f6" d="M-181 1033.893c0-1.053.359-1.186.031-1.718-.467-.76-1.388-1.153-2.281-1.063-.298.03-.597.14-.875.281-.997.508-1.403 1.553-1.031 2.5h-3.366c0 .598-.422 1.34 0 1.333 3.248.38 3.961-.783 4.656-1.872.47-.736 2.373-1.3 2.866.54z"></path><path fill="#43bdbd" d="M-188.5 1037.893h11l-.5-3.53c-1 4-7.793 3.499-10.5 3.53z"></path><rect width="12" height="1.442" x="-189.016" y="1037.423" fill="#a1b4c5" rx=".328" ry=".328"></rect><path fill="none" stroke="#373449" stroke-linecap="round" stroke-linejoin="round" d="M-183.252 1031.118c-.298.03-.587.121-.865.263-.997.508-1.417 1.579-1.046 2.526h-3.34v3.993h11.006v-3.993h-3.34a1.953 1.953 0 0 0-.145-1.739c-.466-.759-1.377-1.14-2.27-1.05z"></path></g></svg>