<svg xmlns="http://www.w3.org/2000/svg" viewBox="0 0 64 64" id="medicine"><path fill="#fff5cb" d="M25.52 28.23c-5.28-5.28-13.87-5.28-19.15 0-5.28 5.28-5.28 13.87 0 19.15 2.64 2.64 6.11 3.96 9.57 3.96s6.93-1.32 9.57-3.96c2.56-2.56 3.97-5.96 3.97-9.57s-1.41-7.03-3.96-9.58z"></path><path fill="#f9f0ca" d="M15.94 51.33c3.47 0 6.93-1.32 9.57-3.96 2.56-2.56 3.97-5.96 3.97-9.57s-1.41-7.02-3.97-9.57L6.37 47.37a13.5 13.5 0 0 0 9.57 3.96z"></path><path fill="#e0d5a4" d="M7.49 27.23a13.13 13.13 0 0 0-2.12 2.12l19.02 19.02a13.13 13.13 0 0 0 2.12-2.12L7.49 27.23z"></path><path fill="#c5fffd" d="M46.85 7.23c-8.08 0-14.65 6.57-14.65 14.65V36.7c0 8.08 6.57 14.65 14.65 14.65S61.5 44.77 61.5 36.69V21.88c0-8.08-6.57-14.65-14.65-14.65z"></path><path fill="#faa916" d="M30.2 10.15c-.56-1.71-2.18-2.88-4.57-3.29-2.05-.35-4.5-.11-6.92.68-5.47 1.79-8.78 5.63-7.71 8.91.73 2.23 3.25 3.47 6.5 3.47 1.54 0 3.24-.28 4.99-.85 5.47-1.81 8.78-5.64 7.71-8.92z"></path><path fill="#ff6663" d="M46.85 7.23c-8.08 0-14.65 6.57-14.65 14.65v7.41h29.3v-7.41c0-8.08-6.57-14.65-14.65-14.65z"></path><path fill="#b2edea" d="M46.85 7.23c-.25 0-.49.02-.73.04V51.3c.24.01.49.04.73.04 8.08 0 14.65-6.57 14.65-14.65V21.88c0-8.08-6.57-14.65-14.65-14.65z"></path><path fill="#ed5454" d="M46.85 7.23c-.25 0-.49.02-.73.04v22.02H61.5v-7.41c0-8.08-6.57-14.65-14.65-14.65z"></path><path fill="#ffc064" d="M25.63 6.85c-2.05-.35-4.5-.11-6.92.68-4.71 1.54-7.81 4.59-7.9 7.51 1.14 1.4 3.22 2.17 5.77 2.17 1.54 0 3.24-.28 4.99-.85 4.71-1.55 7.81-4.6 7.9-7.52-.81-1-2.13-1.69-3.84-1.99z"></path><path fill="#c1b584" d="m17 36.74-2.12 2.12 9.51 9.51a13.13 13.13 0 0 0 2.12-2.12L17 36.74z"></path></svg>