<svg xmlns="http://www.w3.org/2000/svg" width="80" height="80" id="search"><g transform="translate(0 -972.362)"><circle cx="40" cy="1012.362" r="40" fill="#ef4c45" fill-rule="evenodd"></circle><path style="line-height:normal;text-indent:0;text-align:start;text-decoration-line:none;text-decoration-style:solid;text-decoration-color:#000;text-transform:none;block-progression:tb;isolation:auto;mix-blend-mode:normal" fill="#fff" d="M26 992.362c-1.099 0-2 .901-2 2s.901 2 2 2 2-.901 2-2-.901-2-2-2zm0 1c.558 0 1 .442 1 1s-.442 1-1 1-1-.442-1-1 .442-1 1-1zm2.04 2.55-.776.63.63.777.776-.633-.63-.775zm1.263 1.55-.776.633.631.775.776-.633-.631-.775zm1.261 1.55-.427.35H22.5a2.506 2.506 0 0 0-2.5 2.5v10.775l-3.158.38a2.502 2.502 0 0 0-2.342-1.655 2.508 2.508 0 0 0-2.5 2.5c0 1.375 1.125 2.5 2.5 2.5a2.502 2.502 0 0 0 2.486-2.355l3.014-.362v10.717h-3.5a.5.5 0 0 0-.5.5v2c0 1.93 1.57 3.5 3.5 3.5h41c1.93 0 3.5-1.57 3.5-3.5v-2a.5.5 0 0 0-.5-.5H60v-6.758l.91.27.285-.957-.959-.285-.236.797v-15.567c0-1.376-1.124-2.5-2.5-2.5H30.85l-.286-.35zm-8.064 1.35h7.873l.047.06.072-.06H57.5c.84 0 1.5.66 1.5 1.5v14.404l-.682-.2-.285.958.96.284.007-.025v7.08H21v-10.836l2-.24v8.576a.5.5 0 0 0 .5.5h19.98l.723 1.252c.411.712 1.337.96 2.049.548a1.508 1.508 0 0 0 .66-1.8H56.5a.5.5 0 0 0 .5-.5v-5.143l.074.02.285-.959-.359-.106v-12.813a.5.5 0 0 0-.5-.5H33.293l-.203-.25-.305.25H23.5a.5.5 0 0 0-.5.5v9.416l-2 .242v-10.658c0-.84.66-1.5 1.5-1.5zm9.328.2-.775.632.63.776.776-.633-.63-.776zm-7.828 2.8h8.816l.131.158.196-.158H56v18h-9.633l-2.816-4.879a.5.5 0 0 0-.227-.937.5.5 0 0 0-.273.066l-.867.5-.364-.633c2.136-1.46 2.826-4.347 1.512-6.623a5.013 5.013 0 0 0-4.953-2.461 4.952 4.952 0 0 0-1.879.63 5.01 5.01 0 0 0-1.832 6.833c1.273 2.205 3.986 3.07 6.273 2.103l.377.65-.865.5a.5.5 0 0 0 .5.868l1.95 3.379H24v-8.195l9.047-1.086a6.02 6.02 0 0 1-.03-1.004L24 1012.157v-8.795zm10.354.303-.776.63.631.776.775-.63-.63-.776zm18.646.697c-1.099 0-2 .902-2 2 0 .109.016.212.033.317l-6.404 2.62c.116.32.204.644.264.971l6.543-2.68c.367.466.93.772 1.564.772 1.099 0 2-.901 2-2s-.901-2-2-2zm-17.383.854-.775.633.572.7c.186-.138.38-.27.586-.388.033-.019.068-.032.102-.051l.146-.121-.63-.773zm17.383.146c.558 0 1 .442 1 1s-.442 1-1 1-1-.442-1-1 .442-1 1-1zm-13.912 1.992c1.35.03 2.65.745 3.377 2.004a3.995 3.995 0 0 1-1.465 5.467 3.992 3.992 0 0 1-5.465-1.463 3.995 3.995 0 0 1 1.465-5.467 4.004 4.004 0 0 1 2.088-.538zm-.088 1.008c-1.65 0-3 1.35-3 3 0 1.651 1.35 3 3 3s3-1.349 3-3c0-1.65-1.35-3-3-3zm0 1c1.11 0 2 .89 2 2 0 1.11-.89 2-2 2-1.11 0-2-.89-2-2 0-1.11.89-2 2-2zm5.94 2.74c-.043.333-.111.66-.208.98l.838.247.284-.959-.915-.268zm-30.44.26c.834 0 1.5.666 1.5 1.5s-.666 1.5-1.5 1.5-1.5-.666-1.5-1.5.666-1.5 1.5-1.5zm32.313.295-.284.959.957.283.285-.959-.958-.283zm1.917.566-.285.96.96.283.284-.96-.959-.282zm1.918.569-.285.957.96.287.282-.961-.957-.283zm1.916.566-.283.961.96.285.282-.959-.959-.287zm1.918.57-.283.96.96.283.282-.96-.959-.282zm-20.28.026-1.212 1.21.707.708 1.168-1.168a5.933 5.933 0 0 1-.664-.75zm31.298 1.408a2.508 2.508 0 0 0-2.5 2.5c0 1.375 1.125 2.5 2.5 2.5s2.5-1.125 2.5-2.5-1.125-2.5-2.5-2.5zm-33.217.512-.64.639a1.48 1.48 0 0 0-.643-.15c-.823 0-1.5.677-1.5 1.5 0 .822.677 1.5 1.5 1.5s1.5-.678 1.5-1.5c0-.23-.058-.444-.152-.64l.642-.644-.707-.705zm10.403.11 3.25 5.628a.49.49 0 0 1-.184.684.489.489 0 0 1-.684-.184l-3.25-5.629.868-.5zm19.466.216-.283.961.96.283.282-.96-.959-.284zm3.348.162c.834 0 1.5.666 1.5 1.5s-.666 1.5-1.5 1.5-1.5-.666-1.5-1.5.666-1.5 1.5-1.5zm-34.5 1c.282 0 .5.218.5.5 0 .282-.218.5-.5.5a.493.493 0 0 1-.5-.5c0-.282.218-.5.5-.5zm15.95 6.998H63v1.5c0 1.394-1.106 2.5-2.5 2.5h-41a2.484 2.484 0 0 1-2.5-2.5v-1.498h17.05a2.508 2.508 0 0 0 2.45 1.998h8a2.51 2.51 0 0 0 2.45-2zm-11.745 0h10.59c-.217.558-.653 1-1.295 1h-8c-.642 0-1.078-.442-1.295-1z" color="#000" font-family="sans-serif" font-weight="400" overflow="visible"></path></g></svg>