<svg xmlns="http://www.w3.org/2000/svg" xmlns:xlink="http://www.w3.org/1999/xlink" width="48" height="48" id="medical"><defs><linearGradient id="b" x1="906.952" x2="931.379" y1="515.915" y2="546.094" gradientTransform="translate(-1388.719 211.343) scale(1.53785)" gradientUnits="userSpaceOnUse" xlink:href="#a"></linearGradient><linearGradient id="a"><stop offset="0" stop-color="#ffd800"></stop><stop offset="1" stop-color="#ff6100"></stop></linearGradient></defs><g transform="translate(0 -1004.362)"><rect width="48" height="48" y="1004.362" fill="url(#b)" rx="10.144" ry="10.144"></rect><path style="line-height:normal;text-indent:0;text-align:start;text-decoration-line:none;text-decoration-style:solid;text-decoration-color:#000;text-transform:none;block-progression:tb;isolation:auto;mix-blend-mode:normal" fill="#fff" d="M12.5 1016.36a.5.5 0 0 0-.348.86l2.293 2.295-.531.53a.5.5 0 0 0 0 .706l1.416 1.418-.088.088a2.38 2.38 0 0 0 0 3.36l.367.367a.5.5 0 0 0 .147.148.5.5 0 0 0 .004 0l1.625 1.625a.5.5 0 0 0 .002 0 .5.5 0 0 0 .134.133l1.63 1.629a.5.5 0 0 0 .144.146.5.5 0 0 0 .004 0l1.619 1.62a.5.5 0 0 0 .144.146.5.5 0 0 0 .002 0l1.623 1.623a.5.5 0 0 0 .145.144h.002l1.623 1.626a.5.5 0 0 0 .145.144l1.343 1.344-.972.972a.5.5 0 1 0 .707.708l1.256-1.256h.003a.5.5 0 0 0 .135-.137.5.5 0 0 0 .004-.01l1.344-1.342 3.715 3.717-.528.527a.5.5 0 1 0 .707.707l.815-.814a.5.5 0 0 0 .129-.13l1.64-1.638a.5.5 0 0 0 .139-.142l.809-.807a.5.5 0 0 0-.364-.86.5.5 0 0 0-.343.153l-.528.527-3.715-3.716 1.426-1.426 1.317-1.317a.5.5 0 0 0-.364-.857.5.5 0 0 0-.343.15l-.973.973-10.705-10.703a2.367 2.367 0 0 0-1.68-.694c-.609 0-1.22.231-1.682.694l-.087.09-1.416-1.416a.5.5 0 0 0-.362-.147.5.5 0 0 0-.345.147l-.532.531-2.293-2.295a.5.5 0 0 0-.36-.14zm3.537 2.977 1.062 1.063-1.062 1.062-1.063-1.064.458-.457a.5.5 0 0 0 .146-.147l.459-.457zm3.537.563c.35 0 .702.137.975.41l10.705 10.703-1.39 1.39a.5.5 0 0 0-.026.025l-1.77 1.77-1.416 1.416-1.062-1.063 1.41-1.41a.5.5 0 0 0-.363-.857.5.5 0 0 0-.344.15l-1.41 1.41-1.063-1.062.526-.523a.5.5 0 0 0-.364-.86.5.5 0 0 0-.343.151l-.526.525-1.062-1.062 1.41-1.408a.5.5 0 0 0-.363-.86.5.5 0 0 0-.344.153l-1.41 1.408-1.06-1.063.523-.523a.5.5 0 0 0-.364-.86.5.5 0 0 0-.344.153l-.523.523-1.062-1.06 1.408-1.41a.5.5 0 0 0-.364-.858.5.5 0 0 0-.343.15l-1.408 1.409-1.063-1.06.525-.526a.5.5 0 0 0-.363-.858.5.5 0 0 0-.344.15l-.525.526-.088-.09a1.361 1.361 0 0 1 0-1.945l2.652-2.654c.273-.273.623-.41.973-.41zm10.617 13.59 3.715 3.716-1.062 1.063-3.715-3.717 1.062-1.063z" color="#000" font-family="sans-serif" font-weight="400" overflow="visible"></path></g></svg>