<svg xmlns="http://www.w3.org/2000/svg" xmlns:xlink="http://www.w3.org/1999/xlink" enable-background="new 0 0 65 65" viewBox="0 0 65 65" id="google"><defs><path id="a" d="M57.7,33.1c0-1.8-0.2-3.6-0.5-5.2H33v9.9h13.8c-0.6,3.2-2.4,5.9-5.1,7.7v6.4H50
				C54.9,47.5,57.7,40.9,57.7,33.1L57.7,33.1L57.7,33.1z M57.7,33.1"></path></defs><use fill="#fff" fill-rule="evenodd" clip-rule="evenodd" overflow="visible" xlink:href="#a"></use><clipPath id="b"><use overflow="visible" xlink:href="#a"></use></clipPath><rect width="53.2" height="52.6" x="18.8" y="13.6" fill="#fff" stroke="#e54125" stroke-linecap="round" stroke-linejoin="round" stroke-miterlimit="10" stroke-width="2" clip-path="url(#b)"></rect><use fill="none" fill-rule="evenodd" stroke="#e54125" stroke-linecap="round" stroke-linejoin="round" stroke-miterlimit="10" stroke-width="2" clip-rule="evenodd" overflow="visible" xlink:href="#a"></use><g><defs><path id="c" d="M33,58.2c6.9,0,12.7-2.3,17-6.2l-8.3-6.4C39.4,47,36.5,48,33,48c-6.7,0-12.3-4.5-14.4-10.6h-8.6V44
				C14.3,52.4,23,58.2,33,58.2L33,58.2L33,58.2z M33,58.2"></path></defs><use fill="#fad1c4" fill-rule="evenodd" clip-rule="evenodd" overflow="visible" xlink:href="#c"></use><clipPath id="d"><use overflow="visible" xlink:href="#c"></use></clipPath><rect width="68.4" height="49.3" x="-4.2" y="23.1" fill="#fad1c4" stroke="#e54125" stroke-linecap="round" stroke-linejoin="round" stroke-miterlimit="10" stroke-width="2" clip-path="url(#d)"></rect><use fill="none" fill-rule="evenodd" stroke="#e54125" stroke-linecap="round" stroke-linejoin="round" stroke-miterlimit="10" stroke-width="2" clip-rule="evenodd" overflow="visible" xlink:href="#c"></use></g><g><defs><path id="e" d="M18.7,37.4c-0.5-1.5-0.8-3.2-0.8-4.9c0-1.7,0.3-3.3,0.8-4.9V21h-8.6c-1.7,3.5-2.7,7.4-2.7,11.5
				s1,8.1,2.7,11.5L18.7,37.4L18.7,37.4L18.7,37.4z M18.7,37.4"></path></defs><use fill="#fff" fill-rule="evenodd" clip-rule="evenodd" overflow="visible" xlink:href="#e"></use><clipPath id="f"><use overflow="visible" xlink:href="#e"></use></clipPath><rect width="39.8" height="51.6" x="-6.9" y="6.7" fill="#fff" stroke="#e54125" stroke-linecap="round" stroke-linejoin="round" stroke-miterlimit="10" stroke-width="2" clip-path="url(#f)"></rect><use fill="none" fill-rule="evenodd" stroke="#e54125" stroke-linecap="round" stroke-linejoin="round" stroke-miterlimit="10" stroke-width="2" clip-rule="evenodd" overflow="visible" xlink:href="#e"></use></g><g><defs><path id="g" d="M33,17c3.8,0,7.2,1.3,9.8,3.8l7.4-7.4C45.7,9.4,39.9,6.8,33,6.8c-10,0-18.7,5.8-22.9,14.1l8.6,6.6
				C20.7,21.6,26.3,17,33,17L33,17L33,17z M33,17"></path></defs><use fill="#fad1c4" fill-rule="evenodd" clip-rule="evenodd" overflow="visible" xlink:href="#g"></use><clipPath id="h"><use overflow="visible" xlink:href="#g"></use></clipPath><rect width="68.6" height="49.3" x="-4.2" y="-7.4" fill="#fad1c4" stroke="#e54125" stroke-linecap="round" stroke-linejoin="round" stroke-miterlimit="10" stroke-width="2" clip-path="url(#h)"></rect><use fill="none" fill-rule="evenodd" stroke="#e54125" stroke-linecap="round" stroke-linejoin="round" stroke-miterlimit="10" stroke-width="2" clip-rule="evenodd" overflow="visible" xlink:href="#g"></use></g></svg>