<svg xmlns="http://www.w3.org/2000/svg" width="26" height="26" id="medical"><g fill="#fff" transform="translate(5 -1031.362)"><circle cx="8" cy="1044.362" r="13" fill="#239fdb"></circle><path style="line-height:normal;text-indent:0;text-align:start;text-decoration-line:none;text-decoration-style:solid;text-decoration-color:#000;text-transform:none;block-progression:tb;isolation:auto;mix-blend-mode:normal" fill="#0b5ecd" d="M13.736 25.973a13 13 0 0 0 .184-.006 13 13 0 0 0 1.289-.156 13 13 0 0 0 1.268-.286 13 13 0 0 0 1.234-.408 13 13 0 0 0 1.185-.531 13 13 0 0 0 1.127-.647 13 13 0 0 0 1.057-.755 13 13 0 0 0 .977-.858 13 13 0 0 0 .886-.951 13 13 0 0 0 .786-1.035 13 13 0 0 0 .68-1.108 13 13 0 0 0 .566-1.17 13 13 0 0 0 .445-1.22 13 13 0 0 0 .32-1.26 13 13 0 0 0 .196-1.285 13 13 0 0 0 .017-.344L17.5 5.5A.5.5 0 0 0 17 5H9a.5.5 0 0 0-.5.5v2A.5.5 0 0 0 9 8l.5.5v.516a2.15 2.15 0 0 0-2 2.134v7.702a2.165 2.165 0 0 0 .63 1.518l5.606 5.603z" color="#000" font-family="sans-serif" font-weight="400" transform="translate(-5 1031.362)"></path><path d="M2.5 1036.362a.5.5 0 0 0-.5.5v2a.5.5 0 0 0 .5.5H3v1.016a2.15 2.15 0 0 0-2 2.135v7.7c0 1.183.968 2.15 2.15 2.15h6.7c1.182 0 2.15-.967 2.15-2.15v-7.7c0-1.131-.888-2.056-2-2.135v-1.016h.5a.5.5 0 0 0 .5-.5v-2a.5.5 0 0 0-.5-.5h-8zm.5 1h7v1H3v-1zm1 2h5v1H4v-1zm-.85 2H9.85c.645 0 1.15.505 1.15 1.15v7.702c0 .646-.505 1.148-1.15 1.148h-6.7c-.645 0-1.15-.503-1.15-1.148v-7.701c0-.646.505-1.15 1.15-1.15zm4.85 6v1H7v1h1v1h1v-1h1v-1H9v-1H8z" color="#000" font-family="sans-serif" font-weight="400" overflow="visible" transform="translate(1.5)" style="line-height:normal;text-indent:0;text-align:start;text-decoration-line:none;text-decoration-style:solid;text-decoration-color:#000;text-transform:none;block-progression:tb;isolation:auto;mix-blend-mode:normal"></path></g></svg>