<svg xmlns="http://www.w3.org/2000/svg" width="32" height="32" id="medical"><g transform="translate(-396.045 -630.088)"><path fill="#cdd7e0" d="M402.545 637.485h19v22h-19z"></path><path fill="#ff5855" d="M411.045 642.485v2.5h-2.5v2h2.5v2.5h2v-2.5h2.5v-2h-2.5v-2.5z"></path><path fill="none" stroke="#f4f4f4" d="M407.545 652.485h9m-9 2h9m-9 2h9"></path><path fill="#f4f4f4" d="M402.545 637.479v22h1.5v-22h-1.5z"></path><path fill="#a1b4c5" d="M420.045 637.479v22h1.5v-22h-1.5z"></path><rect width="11.002" height="1.38" x="406.529" y="638.5" fill="#a1b4c5" rx="0" ry="0"></rect><path fill="none" d="M402.545 637.485h19v22h-19z"></path><path fill="#5bdadd" d="M411.793 632.704c-.298.03-.587.12-.865.262-.997.508-1.417 1.579-1.046 2.526h-3.34v3.993h11.006v-3.993h-3.34a1.953 1.953 0 0 0-.144-1.739c-.467-.758-1.378-1.14-2.271-1.05z"></path><path fill="#43bdbd" d="M406.545 639.479h10.992v-3.532c-1 4-8.285 3.5-10.992 3.532z"></path><path fill="none" d="M411.793 632.704c-.298.03-.587.12-.865.262-.997.508-1.417 1.579-1.046 2.526h-3.34v3.993h11.006v-3.993h-3.34a1.953 1.953 0 0 0-.144-1.739c-.467-.758-1.378-1.14-2.271-1.05z"></path></g></svg>