<svg xmlns="http://www.w3.org/2000/svg" width="48" height="48" id="medical"><g transform="translate(0 -1004.362)"><circle cx="24" cy="1028.362" r="24" fill="#1d67b1"></circle><path style="line-height:normal;text-indent:0;text-align:start;text-decoration-line:none;text-decoration-style:solid;text-decoration-color:#000;text-transform:none;block-progression:tb;isolation:auto;mix-blend-mode:normal" fill="#fff" d="M14 1017.362c-1.128 0-2 .997-2 2.158v17.686c0 1.161.872 2.156 2 2.156h20c1.128 0 2-.995 2-2.156v-17.686c0-1.16-.872-2.158-2-2.158H14zm0 1h20c.534 0 1 .483 1 1.158v17.686c0 .676-.466 1.156-1 1.156H14c-.534 0-1-.48-1-1.156v-17.686c0-.675.466-1.158 1-1.158zm.5 1a.5.5 0 0 0-.5.5v7.127a.5.5 0 0 0 0 .074v5.799a.5.5 0 0 0 .5.5h19a.5.5 0 0 0 .5-.5v-5.79a.5.5 0 0 0 0-.073v-7.137a.5.5 0 0 0-.5-.5h-19zm.5 1h18v6.168h-2.775a.5.5 0 0 0-.461.303l-1.13 2.637-2.198-6.432a.5.5 0 0 0-.502-.338.5.5 0 0 0-.438.32l-1.346 3.51h-1.462a.5.5 0 0 0-.422.23l-1.059 1.66-1.318-4.097a.5.5 0 0 0-.897-.117l-1.486 2.324H15v-6.17zm10.936 4.305 2.173 6.357a.5.5 0 0 0 .932.033l1.514-3.527H33v4.832H15v-4.83h2.781a.5.5 0 0 0 .42-.23l1.06-1.66 1.317 4.097a.5.5 0 0 0 .899.117l1.484-2.324h1.533a.5.5 0 0 0 .467-.32l.975-2.545zm2.564 9.695c-.823 0-1.5.678-1.5 1.5 0 .823.677 1.5 1.5 1.5s1.5-.677 1.5-1.5c0-.822-.677-1.5-1.5-1.5zm4 0c-.823 0-1.5.678-1.5 1.5 0 .823.677 1.5 1.5 1.5s1.5-.677 1.5-1.5c0-.822-.677-1.5-1.5-1.5zm-17 1a.5.5 0 0 0-.5.5.5.5 0 0 0 .5.5.5.5 0 0 0 .5-.5.5.5 0 0 0-.5-.5zm2 0a.5.5 0 0 0-.5.5.5.5 0 0 0 .5.5.5.5 0 0 0 .5-.5.5.5 0 0 0-.5-.5zm2 0a.5.5 0 0 0-.5.5.5.5 0 0 0 .5.5.5.5 0 0 0 .5-.5.5.5 0 0 0-.5-.5zm9 0c.282 0 .5.218.5.5 0 .282-.218.5-.5.5a.493.493 0 0 1-.5-.5c0-.282.218-.5.5-.5zm4 0c.282 0 .5.218.5.5 0 .282-.218.5-.5.5a.493.493 0 0 1-.5-.5c0-.282.218-.5.5-.5z" color="#000" font-family="sans-serif" font-weight="400" overflow="visible"></path></g></svg>